<svg width="198" height="72" viewBox="0 0 198 72" fill="none" xmlns="http://www.w3.org/2000/svg">
<path d="M101.547 49.2641V60.1088H93.9389V49.2641H54.1099C52.9483 49.2641 51.8342 48.8027 51.0128 47.9814C50.1914 47.1602 49.7299 46.0465 49.7299 44.885V44.0092H49.4299C48.7974 45.6781 47.6578 47.1069 46.1713 48.0949C44.6646 49.124 42.8257 49.6385 40.6547 49.6385C38.8654 49.6774 37.1 49.2229 35.5521 48.3247C34.0683 47.4312 32.8722 46.1312 32.1051 44.5785C31.2903 42.9582 30.8765 41.0192 30.8634 38.7609V27.7411C30.8634 27.1606 30.6325 26.6035 30.2219 26.193C29.8111 25.7822 29.2541 25.5516 28.6734 25.5516H23.4852C23.1693 25.5518 22.8573 25.6206 22.5702 25.7528C22.2833 25.8852 22.0286 26.078 21.8231 26.318L16.1992 32.8735L27.4731 49.2641H18.0761L10.1921 37.6006L8.01968 40.0834V49.2641H0V10.7067H8.02187V31.3232H8.45988L16.4117 21.9082C16.8226 21.4196 17.3354 21.0267 17.9142 20.757C18.493 20.4873 19.1238 20.3475 19.7623 20.3472H35.5871C36.4615 20.3495 37.2993 20.6979 37.9173 21.3163C38.5356 21.9346 38.8835 22.7726 38.8852 23.6467V37.3246C38.8968 39.0311 39.3546 40.3798 40.2583 41.371C41.162 42.362 42.3738 42.8576 43.8936 42.8576C44.8374 42.863 45.7682 42.6375 46.6048 42.2008C47.4561 41.7379 48.1609 41.0462 48.6394 40.2039C49.1649 39.3281 49.4219 38.2427 49.4101 36.948V20.3472H57.43V44.1253H63.8465V20.3472H71.6231V25.3831H71.9254C72.4509 23.5876 73.3357 22.2323 74.5795 21.3171C75.8173 20.3902 77.3279 19.9004 78.8741 19.9246C79.3088 19.926 79.743 19.9509 80.1751 19.999C80.5876 20.0434 80.9967 20.1166 81.3991 20.218V27.334C80.8865 27.193 80.3638 27.092 79.8355 27.0318C79.2302 26.9484 78.6201 26.9046 78.0091 26.9003C76.9053 26.882 75.8154 27.1481 74.8445 27.6734C73.937 28.1647 73.18 28.8935 72.6545 29.7818C72.1144 30.733 71.8412 31.8126 71.864 32.9062V44.1274H92.2571L84.128 20.3472H92.2505L97.8808 40.3396L103.249 20.3472H111.327L103.224 44.1253H113.244C113.824 44.1253 114.381 43.8946 114.792 43.4839C115.203 43.0734 115.433 42.5165 115.433 41.9358V10.7067H123.455V44.885C123.455 46.0465 122.994 47.1602 122.173 47.9814C121.351 48.8027 120.237 49.2641 119.075 49.2641H101.547Z" fill="#111215"/>
<path d="M189.268 44.885V20.3471H181.243V41.9358C181.243 42.5165 181.013 43.0734 180.602 43.4839C180.191 43.8946 179.634 44.1252 179.053 44.1252H177.21C176.629 44.1252 176.072 43.8946 175.661 43.4839C175.25 43.0734 175.019 42.5165 175.019 41.9358V29.7598C175.019 28.0417 174.687 26.5669 174.021 25.335C173.372 24.1116 172.435 23.0647 171.29 22.2849C170.092 21.4686 168.757 20.8752 167.348 20.5333C165.841 20.1518 164.291 19.962 162.736 19.9684C160.431 19.9698 158.398 20.3201 156.637 21.0193C154.988 21.6425 153.519 22.6649 152.362 23.9949C151.245 25.2997 150.48 26.868 150.139 28.5513L157.559 29.1533C157.843 28.1932 158.444 27.358 159.265 26.7844C160.119 26.145 161.268 25.8254 162.712 25.8254C164.078 25.8254 165.133 26.1515 165.874 26.804C166.616 27.4565 166.993 28.3789 167.004 29.5716V29.6855C167.019 29.958 166.963 30.2297 166.841 30.474C166.718 30.7182 166.535 30.9262 166.308 31.078C165.843 31.3918 165.097 31.6305 164.067 31.7939C163.038 31.9574 161.682 32.1201 159.999 32.2822C158.614 32.4122 157.241 32.6514 155.894 32.9981C154.665 33.3089 153.495 33.8176 152.43 34.5045C151.418 35.1635 150.59 36.0673 150.021 37.132C149.437 38.2223 149.145 39.5712 149.145 41.1782C149.145 43.0874 149.56 44.6815 150.389 45.9601C151.223 47.2288 152.403 48.2318 153.79 48.8502C155.349 49.5123 157.03 49.839 158.724 49.8092C160.009 49.8317 161.288 49.6409 162.51 49.2443C163.538 48.8925 164.49 48.3494 165.316 47.6438C166.081 46.9702 166.713 46.1593 167.179 45.2529H167.398C167.398 45.7808 167.503 46.3035 167.705 46.791C167.908 47.2784 168.204 47.7212 168.578 48.0938C168.952 48.4665 169.396 48.7616 169.884 48.9626C170.373 49.1633 170.896 49.2658 171.423 49.2641H184.887C186.049 49.2641 187.163 48.8027 187.985 47.9814C188.806 47.1602 189.268 46.0464 189.268 44.885ZM167.055 38.9273C167.066 39.8942 166.795 40.8435 166.273 41.6577C165.744 42.4729 165.011 43.1351 164.146 43.5778C163.175 44.0573 162.102 44.2963 161.019 44.2742C159.788 44.2742 158.771 43.9918 157.968 43.4267C157.165 42.8619 156.77 42.0278 156.784 40.9241C156.758 40.2486 156.964 39.5845 157.366 39.0412C157.795 38.4968 158.36 38.0747 159.004 37.8174C159.795 37.4935 160.625 37.2728 161.472 37.1604L162.94 36.9547C163.481 36.8648 164.019 36.7707 164.56 36.6723C165.101 36.5736 165.583 36.4401 166.01 36.3131C166.373 36.208 166.722 36.0565 167.046 35.862L167.055 38.9273Z" fill="#111215"/>
<path d="M143.653 43.1072C143.28 43.1699 142.902 43.2015 142.523 43.2013C142.035 43.2108 141.55 43.1274 141.093 42.9561C140.69 42.7934 140.357 42.4942 140.152 42.111C139.899 41.5692 139.782 40.9738 139.812 40.3768V26.3641H145.245V20.3472H139.812V13.4196H131.79V20.3472H124.752V26.3705H131.79V41.4323C131.777 43.3298 132.173 44.899 132.977 46.1396C133.785 47.3857 134.964 48.3466 136.348 48.8876C137.808 49.4713 139.503 49.729 141.433 49.6605C142.326 49.6407 143.215 49.5328 144.087 49.3385C144.817 49.1765 145.382 49.0305 145.782 48.9007L144.521 42.932L143.653 43.1072Z" fill="#111215"/>
<path fill-rule="evenodd" clip-rule="evenodd" d="M188.322 15.4339C187.501 16.2158 186.405 16.6416 185.271 16.6184C184.134 16.6386 183.034 16.2135 182.205 15.4339C181.804 15.0695 181.484 14.6244 181.267 14.1279C181.049 13.6314 180.939 13.0945 180.944 12.5525C180.939 12.0156 181.049 11.4838 181.267 10.9929C181.484 10.502 181.804 10.0633 182.205 9.70614C183.028 8.91513 184.13 8.48145 185.271 8.49972C185.834 8.4891 186.394 8.59027 186.918 8.79735C187.441 9.00445 187.918 9.31334 188.322 9.70614C188.727 10.0608 189.051 10.4987 189.272 10.9899C189.493 11.4811 189.605 12.0141 189.601 12.5525C189.604 13.096 189.492 13.6342 189.272 14.131C189.051 14.6278 188.727 15.072 188.322 15.4339ZM183.184 11.046C183.19 11.0463 183.192 11.0462 183.184 11.046V11.046Z" fill="#111215"/>
</svg>
