<svg xmlns="http://www.w3.org/2000/svg">
  <symbol id="arrow" viewBox="0 0 20 20">
    <path fill-rule="evenodd" clip-rule="evenodd" d="M5.29303 7.29259C5.48056 7.10512 5.73487 6.99981 6.00003 6.99981C6.26519 6.99981 6.5195 7.10512 6.70703 7.29259L10 10.5856L13.293 7.29259C13.3853 7.19708 13.4956 7.1209 13.6176 7.06849C13.7396 7.01608 13.8709 6.9885 14.0036 6.98734C14.1364 6.98619 14.2681 7.01149 14.391 7.06177C14.5139 7.11205 14.6255 7.18631 14.7194 7.2802C14.8133 7.37409 14.8876 7.48574 14.9379 7.60864C14.9881 7.73154 15.0134 7.86321 15.0123 7.99599C15.0111 8.12877 14.9835 8.25999 14.9311 8.382C14.8787 8.504 14.8025 8.61435 14.707 8.70659L10.707 12.7066C10.5195 12.8941 10.2652 12.9994 10 12.9994C9.73487 12.9994 9.48056 12.8941 9.29303 12.7066L5.29303 8.70659C5.10556 8.51907 5.00024 8.26476 5.00024 7.99959C5.00024 7.73443 5.10556 7.48012 5.29303 7.29259Z" fill="#757575"/>
  </symbol>

  <symbol id="donate" viewBox="0 0 16 16">
    <path d="M6.7464 5.9343C6.8704 5.8519 7.0232 5.7775 7.2 5.7207V7.0791C7.03978 7.02889 6.88717 6.95702 6.7464 6.8655C6.456 6.6719 6.4 6.4911 6.4 6.3999C6.4 6.3087 6.456 6.1279 6.7464 5.9343ZM8.8 10.2791V8.9207C8.976 8.9775 9.1296 9.0519 9.2536 9.1343C9.5448 9.3287 9.6 9.5087 9.6 9.5999C9.6 9.6911 9.544 9.8719 9.2536 10.0655C9.11283 10.157 8.96022 10.2289 8.8 10.2791Z" fill="white"/>
    <path fill-rule="evenodd" clip-rule="evenodd" d="M8 14.3996C9.69738 14.3996 11.3252 13.7253 12.5255 12.5251C13.7257 11.3249 14.4 9.69699 14.4 7.99961C14.4 6.30222 13.7257 4.67436 12.5255 3.47413C11.3252 2.27389 9.69738 1.59961 8 1.59961C6.30261 1.59961 4.67475 2.27389 3.47452 3.47413C2.27428 4.67436 1.6 6.30222 1.6 7.99961C1.6 9.69699 2.27428 11.3249 3.47452 12.5251C4.67475 13.7253 6.30261 14.3996 8 14.3996ZM8.8 3.99961C8.8 3.78744 8.71571 3.58395 8.56568 3.43392C8.41565 3.28389 8.21217 3.19961 8 3.19961C7.78783 3.19961 7.58434 3.28389 7.43431 3.43392C7.28428 3.58395 7.2 3.78744 7.2 3.99961V4.07321C6.72214 4.15828 6.26621 4.33836 5.8592 4.60281C5.2816 4.98681 4.8 5.60681 4.8 6.39961C4.8 7.19161 5.2816 7.81161 5.8592 8.19641C6.2432 8.45241 6.7024 8.63241 7.2 8.72601V10.2788C6.8872 10.1772 6.656 10.0252 6.5256 9.87561C6.45792 9.79256 6.37425 9.72395 6.27955 9.67385C6.18486 9.62375 6.08106 9.59318 5.97433 9.58395C5.86759 9.57473 5.76009 9.58704 5.6582 9.62015C5.55632 9.65325 5.46211 9.70649 5.38119 9.7767C5.30027 9.8469 5.23427 9.93265 5.18711 10.0288C5.13995 10.125 5.1126 10.2297 5.10667 10.3367C5.10074 10.4437 5.11635 10.5507 5.15258 10.6516C5.18882 10.7524 5.24493 10.8449 5.3176 10.9236C5.7672 11.4428 6.448 11.7844 7.2 11.926V11.9996C7.2 12.2118 7.28428 12.4153 7.43431 12.5653C7.58434 12.7153 7.78783 12.7996 8 12.7996C8.21217 12.7996 8.41565 12.7153 8.56568 12.5653C8.71571 12.4153 8.8 12.2118 8.8 11.9996V11.926C9.27786 11.8409 9.73379 11.6609 10.1408 11.3964C10.7184 11.0124 11.2 10.3924 11.2 9.59961C11.2 8.80761 10.7184 8.18761 10.1408 7.80281C9.73379 7.53836 9.27786 7.35828 8.8 7.27321V5.72041C9.1128 5.82201 9.344 5.97401 9.4744 6.12361C9.54271 6.20466 9.62644 6.27133 9.72074 6.31974C9.81504 6.36815 9.91801 6.39733 10.0237 6.4056C10.1294 6.41388 10.2356 6.40106 10.3363 6.36791C10.437 6.33476 10.5301 6.28194 10.6102 6.2125C10.6903 6.14307 10.7557 6.05841 10.8028 5.96345C10.8499 5.86848 10.8777 5.76511 10.8845 5.65933C10.8913 5.55355 10.877 5.44748 10.8424 5.34727C10.8079 5.24706 10.7537 5.15472 10.6832 5.07561C10.2328 4.55641 9.5528 4.21481 8.8 4.07321V3.99961Z" fill="white"/>
  </symbol>

  <symbol id="follow" viewBox="0 0 16 16">
    <path d="M6.4 7.20039C7.03652 7.20039 7.64697 6.94754 8.09705 6.49745C8.54714 6.04736 8.8 5.43691 8.8 4.80039C8.8 4.16387 8.54714 3.55342 8.09705 3.10333C7.64697 2.65325 7.03652 2.40039 6.4 2.40039C5.76348 2.40039 5.15303 2.65325 4.70294 3.10333C4.25285 3.55342 4 4.16387 4 4.80039C4 5.43691 4.25285 6.04736 4.70294 6.49745C5.15303 6.94754 5.76348 7.20039 6.4 7.20039ZM6.4 8.80039C7.67304 8.80039 8.89394 9.3061 9.79411 10.2063C10.6943 11.1065 11.2 12.3274 11.2 13.6004H1.6C1.6 12.3274 2.10571 11.1065 3.00589 10.2063C3.90606 9.3061 5.12696 8.80039 6.4 8.80039ZM12.8 5.60039C12.8 5.38822 12.7157 5.18473 12.5657 5.03471C12.4157 4.88468 12.2122 4.80039 12 4.80039C11.7878 4.80039 11.5843 4.88468 11.4343 5.03471C11.2843 5.18473 11.2 5.38822 11.2 5.60039V6.40039H10.4C10.1878 6.40039 9.98434 6.48468 9.83431 6.63471C9.68428 6.78473 9.6 6.98822 9.6 7.20039C9.6 7.41256 9.68428 7.61605 9.83431 7.76608C9.98434 7.91611 10.1878 8.00039 10.4 8.00039H11.2V8.80039C11.2 9.01256 11.2843 9.21605 11.4343 9.36608C11.5843 9.51611 11.7878 9.60039 12 9.60039C12.2122 9.60039 12.4157 9.51611 12.5657 9.36608C12.7157 9.21605 12.8 9.01256 12.8 8.80039V8.00039H13.6C13.8122 8.00039 14.0157 7.91611 14.1657 7.76608C14.3157 7.61605 14.4 7.41256 14.4 7.20039C14.4 6.98822 14.3157 6.78473 14.1657 6.63471C14.0157 6.48468 13.8122 6.40039 13.6 6.40039H12.8V5.60039Z"/>
  </symbol>

  <symbol id="dotted" viewBox="0 0 14 14">
    <path d="M3.32916 7.4128C3.43855 7.30341 3.50001 7.15504 3.50001 7.00033C3.50001 6.84562 3.43855 6.69724 3.32916 6.58785C3.21976 6.47845 3.07139 6.41699 2.91668 6.41699C2.76197 6.41699 2.61359 6.47845 2.5042 6.58785C2.3948 6.69724 2.33334 6.84562 2.33334 7.00033C2.33334 7.15504 2.3948 7.30341 2.5042 7.4128C2.61359 7.5222 2.76197 7.58366 2.91668 7.58366C3.07139 7.58366 3.21976 7.5222 3.32916 7.4128Z" fill="white"/>
    <path d="M7.41249 7.4128C7.52189 7.30341 7.58334 7.15504 7.58334 7.00033C7.58334 6.84562 7.52189 6.69724 7.41249 6.58785C7.30309 6.47845 7.15472 6.41699 7.00001 6.41699C6.8453 6.41699 6.69693 6.47845 6.58753 6.58785C6.47814 6.69724 6.41668 6.84562 6.41668 7.00033C6.41668 7.15504 6.47814 7.30341 6.58753 7.4128C6.69693 7.5222 6.8453 7.58366 7.00001 7.58366C7.15472 7.58366 7.30309 7.5222 7.41249 7.4128Z" fill="white"/>
    <path d="M11.4958 7.4128C11.6052 7.30341 11.6667 7.15504 11.6667 7.00033C11.6667 6.84562 11.6052 6.69724 11.4958 6.58785C11.3864 6.47845 11.2381 6.41699 11.0833 6.41699C10.9286 6.41699 10.7803 6.47845 10.6709 6.58785C10.5615 6.69724 10.5 6.84562 10.5 7.00033C10.5 7.15504 10.5615 7.30341 10.6709 7.4128C10.7803 7.5222 10.9286 7.58366 11.0833 7.58366C11.2381 7.58366 11.3864 7.5222 11.4958 7.4128Z" fill="white"/>
    <path d="M2.91668 7.00033H2.92251M7.00001 7.00033H7.00584M11.0833 7.00033H11.0892M3.50001 7.00033C3.50001 7.15504 3.43855 7.30341 3.32916 7.4128C3.21976 7.5222 3.07139 7.58366 2.91668 7.58366C2.76197 7.58366 2.61359 7.5222 2.5042 7.4128C2.3948 7.30341 2.33334 7.15504 2.33334 7.00033C2.33334 6.84562 2.3948 6.69724 2.5042 6.58785C2.61359 6.47845 2.76197 6.41699 2.91668 6.41699C3.07139 6.41699 3.21976 6.47845 3.32916 6.58785C3.43855 6.69724 3.50001 6.84562 3.50001 7.00033ZM7.58334 7.00033C7.58334 7.15504 7.52189 7.30341 7.41249 7.4128C7.30309 7.5222 7.15472 7.58366 7.00001 7.58366C6.8453 7.58366 6.69693 7.5222 6.58753 7.4128C6.47814 7.30341 6.41668 7.15504 6.41668 7.00033C6.41668 6.84562 6.47814 6.69724 6.58753 6.58785C6.69693 6.47845 6.8453 6.41699 7.00001 6.41699C7.15472 6.41699 7.30309 6.47845 7.41249 6.58785C7.52189 6.69724 7.58334 6.84562 7.58334 7.00033ZM11.6667 7.00033C11.6667 7.15504 11.6052 7.30341 11.4958 7.4128C11.3864 7.5222 11.2381 7.58366 11.0833 7.58366C10.9286 7.58366 10.7803 7.5222 10.6709 7.4128C10.5615 7.30341 10.5 7.15504 10.5 7.00033C10.5 6.84562 10.5615 6.69724 10.6709 6.58785C10.7803 6.47845 10.9286 6.41699 11.0833 6.41699C11.2381 6.41699 11.3864 6.47845 11.4958 6.58785C11.6052 6.69724 11.6667 6.84562 11.6667 7.00033Z" stroke="#90A4AE" stroke-width="2" stroke-linecap="round" stroke-linejoin="round"/>
  </symbol>

  <symbol id="sound" viewBox="0 0 20 20">
    <path fill-rule="evenodd" clip-rule="evenodd" d="M9.383 3.07553C9.56569 3.15127 9.72181 3.27948 9.83163 3.44395C9.94146 3.60842 10 3.80176 10 3.99953V15.9995C9.99996 16.1973 9.94129 16.3906 9.8314 16.555C9.72152 16.7194 9.56535 16.8475 9.38265 16.9232C9.19995 16.9989 8.99892 17.0187 8.80497 16.9801C8.61102 16.9415 8.43285 16.8463 8.293 16.7065L4.586 12.9995H2C1.73478 12.9995 1.48043 12.8942 1.29289 12.7066C1.10536 12.5191 1 12.2647 1 11.9995V7.99953C1 7.73431 1.10536 7.47996 1.29289 7.29242C1.48043 7.10489 1.73478 6.99953 2 6.99953H4.586L8.293 3.29253C8.43285 3.1526 8.61105 3.05729 8.80508 3.01866C8.9991 2.98003 9.20023 2.99982 9.383 3.07553ZM14.657 2.92853C14.8445 2.74106 15.0988 2.63574 15.364 2.63574C15.6292 2.63574 15.8835 2.74106 16.071 2.92853C17.0008 3.85618 17.7382 4.95838 18.2409 6.17184C18.7435 7.38529 19.0015 8.68609 19 9.99953C19.0015 11.313 18.7435 12.6138 18.2409 13.8272C17.7382 15.0407 17.0008 16.1429 16.071 17.0705C15.8824 17.2527 15.6298 17.3535 15.3676 17.3512C15.1054 17.3489 14.8546 17.2438 14.6692 17.0583C14.4838 16.8729 14.3786 16.6221 14.3763 16.3599C14.374 16.0977 14.4748 15.8451 14.657 15.6565C15.4011 14.9146 15.9912 14.0328 16.3933 13.062C16.7955 12.0911 17.0016 11.0504 17 9.99953C17 7.78953 16.106 5.79153 14.657 4.34253C14.4695 4.155 14.3642 3.90069 14.3642 3.63553C14.3642 3.37036 14.4695 3.11606 14.657 2.92853ZM11.828 5.75653C11.9209 5.66355 12.0312 5.58979 12.1526 5.53947C12.274 5.48914 12.4041 5.46324 12.5355 5.46324C12.6669 5.46324 12.797 5.48914 12.9184 5.53947C13.0398 5.58979 13.1501 5.66355 13.243 5.75653C13.8009 6.31319 14.2433 6.97459 14.5448 7.70274C14.8463 8.43088 15.001 9.21142 15 9.99953C15.001 10.7876 14.8463 11.5682 14.5447 12.2963C14.2432 13.0244 13.8008 13.6858 13.243 14.2425C13.0554 14.4302 12.8009 14.5356 12.5355 14.5356C12.2701 14.5356 12.0156 14.4302 11.828 14.2425C11.6404 14.0549 11.5349 13.8004 11.5349 13.535C11.5349 13.2697 11.6404 13.0152 11.828 12.8275C12.2002 12.4567 12.4953 12.0159 12.6965 11.5306C12.8976 11.0452 13.0008 10.5249 13 9.99953C13.0008 9.47415 12.8977 8.95379 12.6965 8.46844C12.4954 7.98308 12.2002 7.54232 11.828 7.17153C11.735 7.07866 11.6613 6.96837 11.6109 6.84697C11.5606 6.72557 11.5347 6.59544 11.5347 6.46403C11.5347 6.33261 11.5606 6.20249 11.6109 6.08109C11.6613 5.95969 11.735 5.8494 11.828 5.75653Z" fill="#90A4AE"/>
  </symbol>

  <symbol id="play" viewBox="0 0 20 20">
    <path fill-rule="evenodd" clip-rule="evenodd" d="M3.75 4.71023C3.75 3.52179 5.02417 2.76841 6.0655 3.34115L15.6827 8.63058C16.762 9.22422 16.762 10.7751 15.6827 11.3688L6.0655 16.6582C5.02416 17.2309 3.75 16.4775 3.75 15.2891V4.71023Z" fill="white"/>
  </symbol>

  <symbol id="pause" viewBox="0 0 20 20">
    <path fill-rule="evenodd" clip-rule="evenodd" d="M5.625 4.375C5.625 4.02982 5.90482 3.75 6.25 3.75H7.5C7.84518 3.75 8.125 4.02982 8.125 4.375V15.625C8.125 15.9702 7.84518 16.25 7.5 16.25H6.25C6.08424 16.25 5.92527 16.1842 5.80806 16.0669C5.69085 15.9497 5.625 15.7908 5.625 15.625L5.625 4.375ZM11.875 4.375C11.875 4.02982 12.1548 3.75 12.5 3.75H13.75C13.9158 3.75 14.0747 3.81585 14.1919 3.93306C14.3092 4.05027 14.375 4.20924 14.375 4.375L14.375 15.625C14.375 15.9702 14.0952 16.25 13.75 16.25H12.5C12.1548 16.25 11.875 15.9702 11.875 15.625V4.375Z" fill="white"/>
  </symbol>

  <symbol id="add" viewBox="0 0 16 16">
    <path fill-rule="evenodd" clip-rule="evenodd" d="M8.0001 14.3996C9.69748 14.3996 11.3253 13.7253 12.5256 12.5251C13.7258 11.3249 14.4001 9.69699 14.4001 7.99961C14.4001 6.30222 13.7258 4.67436 12.5256 3.47413C11.3253 2.27389 9.69748 1.59961 8.0001 1.59961C6.30271 1.59961 4.67485 2.27389 3.47461 3.47413C2.27438 4.67436 1.6001 6.30222 1.6001 7.99961C1.6001 9.69699 2.27438 11.3249 3.47461 12.5251C4.67485 13.7253 6.30271 14.3996 8.0001 14.3996ZM8.8001 5.59961C8.8001 5.38744 8.71581 5.18395 8.56578 5.03392C8.41575 4.88389 8.21227 4.79961 8.0001 4.79961C7.78792 4.79961 7.58444 4.88389 7.43441 5.03392C7.28438 5.18395 7.2001 5.38744 7.2001 5.59961V7.19961H5.6001C5.38792 7.19961 5.18444 7.28389 5.03441 7.43392C4.88438 7.58395 4.8001 7.78744 4.8001 7.99961C4.8001 8.21178 4.88438 8.41527 5.03441 8.56529C5.18444 8.71532 5.38792 8.79961 5.6001 8.79961H7.2001V10.3996C7.2001 10.6118 7.28438 10.8153 7.43441 10.9653C7.58444 11.1153 7.78792 11.1996 8.0001 11.1996C8.21227 11.1996 8.41575 11.1153 8.56578 10.9653C8.71581 10.8153 8.8001 10.6118 8.8001 10.3996V8.79961H10.4001C10.6123 8.79961 10.8158 8.71532 10.9658 8.56529C11.1158 8.41527 11.2001 8.21178 11.2001 7.99961C11.2001 7.78744 11.1158 7.58395 10.9658 7.43392C10.8158 7.28389 10.6123 7.19961 10.4001 7.19961H8.8001V5.59961Z" fill="white"/>
  </symbol>

  <symbol id="add-subscription" viewBox="0 0 16 16">
    <path d="M3.9999 2.40039C3.57556 2.40039 3.16859 2.56896 2.86853 2.86902C2.56847 3.16908 2.3999 3.57604 2.3999 4.00039V5.60039C2.3999 6.02474 2.56847 6.4317 2.86853 6.73176C3.16859 7.03182 3.57556 7.20039 3.9999 7.20039H5.5999C6.02425 7.20039 6.43122 7.03182 6.73127 6.73176C7.03133 6.4317 7.1999 6.02474 7.1999 5.60039V4.00039C7.1999 3.57604 7.03133 3.16908 6.73127 2.86902C6.43122 2.56896 6.02425 2.40039 5.5999 2.40039H3.9999ZM3.9999 8.80039C3.57556 8.80039 3.16859 8.96896 2.86853 9.26902C2.56847 9.56908 2.3999 9.97605 2.3999 10.4004V12.0004C2.3999 12.4247 2.56847 12.8317 2.86853 13.1318C3.16859 13.4318 3.57556 13.6004 3.9999 13.6004H5.5999C6.02425 13.6004 6.43122 13.4318 6.73127 13.1318C7.03133 12.8317 7.1999 12.4247 7.1999 12.0004V10.4004C7.1999 9.97605 7.03133 9.56908 6.73127 9.26902C6.43122 8.96896 6.02425 8.80039 5.5999 8.80039H3.9999ZM8.7999 4.00039C8.7999 3.57604 8.96847 3.16908 9.26853 2.86902C9.56859 2.56896 9.97556 2.40039 10.3999 2.40039H11.9999C12.4242 2.40039 12.8312 2.56896 13.1313 2.86902C13.4313 3.16908 13.5999 3.57604 13.5999 4.00039V5.60039C13.5999 6.02474 13.4313 6.4317 13.1313 6.73176C12.8312 7.03182 12.4242 7.20039 11.9999 7.20039H10.3999C9.97556 7.20039 9.56859 7.03182 9.26853 6.73176C8.96847 6.4317 8.7999 6.02474 8.7999 5.60039V4.00039ZM11.1999 8.80039C11.4121 8.80039 11.6156 8.88468 11.7656 9.03471C11.9156 9.18473 11.9999 9.38822 11.9999 9.60039V10.4004H12.7999C13.0121 10.4004 13.2156 10.4847 13.3656 10.6347C13.5156 10.7847 13.5999 10.9882 13.5999 11.2004C13.5999 11.4126 13.5156 11.616 13.3656 11.7661C13.2156 11.9161 13.0121 12.0004 12.7999 12.0004H11.9999V12.8004C11.9999 13.0126 11.9156 13.216 11.7656 13.3661C11.6156 13.5161 11.4121 13.6004 11.1999 13.6004C10.9877 13.6004 10.7842 13.5161 10.6342 13.3661C10.4842 13.216 10.3999 13.0126 10.3999 12.8004V12.0004H9.5999C9.38773 12.0004 9.18425 11.9161 9.03422 11.7661C8.88419 11.616 8.7999 11.4126 8.7999 11.2004C8.7999 10.9882 8.88419 10.7847 9.03422 10.6347C9.18425 10.4847 9.38773 10.4004 9.5999 10.4004H10.3999V9.60039C10.3999 9.38822 10.4842 9.18473 10.6342 9.03471C10.7842 8.88468 10.9877 8.80039 11.1999 8.80039Z" />
  </symbol>

  <symbol id="close" viewBox="0 0 20 20">
    <path fill-rule="evenodd" clip-rule="evenodd" d="M6.19519 6.19083C6.32021 6.06585 6.48975 5.99564 6.66652 5.99564C6.8433 5.99564 7.01284 6.06585 7.13786 6.19083L9.99986 9.05283L12.8619 6.19083C12.9234 6.12716 12.9969 6.07637 13.0783 6.04143C13.1596 6.00649 13.2471 5.9881 13.3356 5.98733C13.4241 5.98656 13.5119 6.00343 13.5938 6.03695C13.6758 6.07047 13.7502 6.11997 13.8128 6.18257C13.8754 6.24516 13.9249 6.3196 13.9584 6.40153C13.9919 6.48346 14.0088 6.57124 14.008 6.65976C14.0073 6.74828 13.9889 6.83576 13.9539 6.9171C13.919 6.99844 13.8682 7.072 13.8045 7.1335L10.9425 9.9955L13.8045 12.8575C13.926 12.9832 13.9932 13.1516 13.9916 13.3264C13.9901 13.5012 13.92 13.6684 13.7964 13.792C13.6728 13.9156 13.5056 13.9858 13.3308 13.9873C13.156 13.9888 12.9876 13.9216 12.8619 13.8002L9.99986 10.9382L7.13786 13.8002C7.01212 13.9216 6.84372 13.9888 6.66892 13.9873C6.49413 13.9858 6.32692 13.9156 6.20331 13.792C6.07971 13.6684 6.00959 13.5012 6.00807 13.3264C6.00656 13.1516 6.07375 12.9832 6.19519 12.8575L9.05719 9.9955L6.19519 7.1335C6.07021 7.00848 6 6.83894 6 6.66216C6 6.48539 6.07021 6.31585 6.19519 6.19083Z" fill="#212121"/>
  </symbol>
</svg>
