<svg xmlns="http://www.w3.org/2000/svg">
  <symbol id="arrow" viewBox="0 0 20 20">
    <path fill-rule="evenodd" clip-rule="evenodd" d="M5.29303 7.29259C5.48056 7.10512 5.73487 6.99981 6.00003 6.99981C6.26519 6.99981 6.5195 7.10512 6.70703 7.29259L10 10.5856L13.293 7.29259C13.3853 7.19708 13.4956 7.1209 13.6176 7.06849C13.7396 7.01608 13.8709 6.9885 14.0036 6.98734C14.1364 6.98619 14.2681 7.01149 14.391 7.06177C14.5139 7.11205 14.6255 7.18631 14.7194 7.2802C14.8133 7.37409 14.8876 7.48574 14.9379 7.60864C14.9881 7.73154 15.0134 7.86321 15.0123 7.99599C15.0111 8.12877 14.9835 8.25999 14.9311 8.382C14.8787 8.504 14.8025 8.61435 14.707 8.70659L10.707 12.7066C10.5195 12.8941 10.2652 12.9994 10 12.9994C9.73487 12.9994 9.48056 12.8941 9.29303 12.7066L5.29303 8.70659C5.10556 8.51907 5.00024 8.26476 5.00024 7.99959C5.00024 7.73443 5.10556 7.48012 5.29303 7.29259Z" fill="#757575"/>
  </symbol>
</svg>
