<svg xmlns="http://www.w3.org/2000/svg">
  <symbol id="visa" viewBox="0 0 32 32">
    <g clip-path="url(#clip0_70_2390)">
      <path d="M13.8666 20.8729H11.2744L12.8958 10.8477H15.4879L13.8666 20.8729Z" fill="#00579F"/>
      <path d="M23.2638 11.0928C22.7525 10.89 21.9415 10.666 20.9387 10.666C18.3788 10.666 16.5762 12.0311 16.5651 13.9827C16.5438 15.4227 17.8558 16.2224 18.837 16.7025C19.8399 17.1931 20.1808 17.5134 20.1808 17.9507C20.1706 18.6223 19.3704 18.9319 18.6241 18.9319C17.5891 18.9319 17.0346 18.7723 16.1919 18.3986L15.8505 18.2384L15.4878 20.4889C16.0958 20.7659 17.2159 21.0117 18.3788 21.0224C21.0988 21.0224 22.8695 19.6785 22.8905 17.5987C22.9009 16.4574 22.2081 15.583 20.7146 14.8684C19.808 14.4097 19.2527 14.1004 19.2527 13.631C19.2634 13.2044 19.7224 12.7674 20.7458 12.7674C21.5885 12.7459 22.2077 12.9485 22.6768 13.1512L22.9112 13.2577L23.2638 11.0928Z" fill="#00579F"/>
      <path d="M26.7091 17.3213C26.9226 16.7454 27.744 14.5163 27.744 14.5163C27.7332 14.5378 27.9571 13.9298 28.0851 13.5565L28.2662 14.4204C28.2662 14.4204 28.7571 16.8201 28.8637 17.3213C28.4586 17.3213 27.2211 17.3213 26.7091 17.3213ZM29.9089 10.8477H27.9038C27.2854 10.8477 26.8157 11.0288 26.5489 11.6795L22.6985 20.8728H25.4184C25.4184 20.8728 25.8662 19.6354 25.9625 19.369C26.2609 19.369 28.9068 19.369 29.2907 19.369C29.3651 19.7209 29.6 20.8728 29.6 20.8728H32.0001L29.9089 10.8477Z" fill="#00579F"/>
      <path d="M9.1092 10.8477L6.57056 17.6839L6.29315 16.2975C5.82381 14.6976 4.35185 12.9595 2.70923 12.0952L5.03453 20.8623H7.77574L11.8503 10.8477H9.1092Z" fill="#00579F"/>
      <path d="M4.2133 10.8477H0.0426673L0 11.0502C3.25336 11.8822 5.40799 13.8875 6.29323 16.2979L5.38659 11.6904C5.23732 11.0501 4.77861 10.8688 4.2133 10.8477Z" fill="#FAA61A"/>
    </g>
    <defs>
      <clipPath id="clip0_70_2390">
        <rect width="32" height="32" fill="white"/>
      </clipPath>
    </defs>
  </symbol>

  <symbol id="mastercard" viewBox="0 0 32 32">
    <path d="M11.6738 8.11523H20.3262V23.662H11.6738V8.11523Z" fill="#FF5F00"/>
    <path d="M12.2232 15.8884C12.2232 12.7296 13.7064 9.9279 15.9863 8.11502C14.3107 6.79657 12.1957 6 9.88841 6C4.42232 6 0 10.4223 0 15.8884C0 21.3545 4.42232 25.7768 9.88841 25.7768C12.1957 25.7768 14.3107 24.9803 15.9863 23.6618C13.7064 21.8764 12.2232 19.0472 12.2232 15.8884Z" fill="#EB001B"/>
    <path d="M31.9999 15.8884C31.9999 21.3545 27.5776 25.7768 22.1115 25.7768C19.8042 25.7768 17.6892 24.9803 16.0137 23.6618C18.321 21.8489 19.7768 19.0472 19.7768 15.8884C19.7768 12.7296 18.2935 9.9279 16.0137 8.11502C17.6892 6.79657 19.8042 6 22.1115 6C27.5776 6 31.9999 10.4498 31.9999 15.8884Z" fill="#F79E1B"/>
  </symbol>
</svg>
