<svg xmlns="http://www.w3.org/2000/svg">
  <symbol id="eye-close" viewBox="0 0 20 20">
    <path fill-rule="evenodd" clip-rule="evenodd" d="M3.70692 2.293C3.51832 2.11084 3.26571 2.01005 3.00352 2.01232C2.74132 2.0146 2.49051 2.11977 2.3051 2.30518C2.11969 2.49059 2.01452 2.7414 2.01224 3.0036C2.00997 3.26579 2.11076 3.5184 2.29292 3.707L16.2929 17.707C16.4815 17.8892 16.7341 17.99 16.9963 17.9877C17.2585 17.9854 17.5093 17.8802 17.6947 17.6948C17.8801 17.5094 17.9853 17.2586 17.9876 16.9964C17.9899 16.7342 17.8891 16.4816 17.7069 16.293L16.2339 14.82C17.7914 13.5781 18.9432 11.8999 19.5419 10C18.2679 5.943 14.4779 3 9.99992 3C8.43235 2.99787 6.88642 3.36585 5.48792 4.074L3.70792 2.293H3.70692ZM7.96792 6.553L9.48192 8.068C9.82101 7.97795 10.1778 7.97855 10.5166 8.06973C10.8554 8.16091 11.1643 8.33948 11.4124 8.58756C11.6604 8.83565 11.839 9.14454 11.9302 9.48333C12.0214 9.82212 12.022 10.1789 11.9319 10.518L13.4459 12.032C13.8969 11.268 14.0811 10.3758 13.9696 9.49568C13.858 8.61556 13.4571 7.79749 12.8297 7.17018C12.2024 6.54286 11.3844 6.14189 10.5042 6.03035C9.62412 5.9188 8.7319 6.10301 7.96792 6.554V6.553Z" fill="#90A4AE" />
    <path d="M12.454 16.697L9.75001 13.992C8.77769 13.9311 7.86103 13.5174 7.17206 12.8286C6.4831 12.1398 6.06918 11.2233 6.00801 10.251L2.33501 6.578C1.49022 7.58401 0.852357 8.74691 0.458008 10C1.73201 14.057 5.52301 17 10 17C10.847 17 11.669 16.895 12.454 16.697Z" fill="#90A4AE" />
  </symbol>

  <symbol id="image" viewBox="0 0 16 16">
    <path fill-rule="evenodd" clip-rule="evenodd" d="M3.20001 2.40039C2.77566 2.40039 2.36869 2.56896 2.06864 2.86902C1.76858 3.16908 1.60001 3.57604 1.60001 4.00039V12.0004C1.60001 12.4247 1.76858 12.8317 2.06864 13.1318C2.36869 13.4318 2.77566 13.6004 3.20001 13.6004H12.8C13.2244 13.6004 13.6313 13.4318 13.9314 13.1318C14.2314 12.8317 14.4 12.4247 14.4 12.0004V4.00039C14.4 3.57604 14.2314 3.16908 13.9314 2.86902C13.6313 2.56896 13.2244 2.40039 12.8 2.40039H3.20001ZM12.8 12.0004H3.20001L6.40001 5.60039L8.80001 10.4004L10.4 7.20039L12.8 12.0004Z" />
  </symbol>

  <symbol id="video" viewBox="0 0 16 16">
    <path d="M2.1 4.79922C2.1 4.37487 2.26857 3.96791 2.56863 3.66785C2.86869 3.36779 3.27565 3.19922 3.7 3.19922H8.5C8.92434 3.19922 9.33131 3.36779 9.63137 3.66785C9.93143 3.96791 10.1 4.37487 10.1 4.79922V11.1992C10.1 11.6236 9.93143 12.0305 9.63137 12.3306C9.33131 12.6306 8.92434 12.7992 8.5 12.7992H3.7C3.27565 12.7992 2.86869 12.6306 2.56863 12.3306C2.26857 12.0305 2.1 11.6236 2.1 11.1992V4.79922ZM12.1424 5.68402C12.0095 5.75041 11.8978 5.85248 11.8196 5.9788C11.7415 6.10511 11.7001 6.25069 11.7 6.39922V9.59922C11.7001 9.74775 11.7415 9.89332 11.8196 10.0196C11.8978 10.146 12.0095 10.248 12.1424 10.3144L13.7424 11.1144C13.8643 11.1754 13.9998 11.2041 14.136 11.198C14.2722 11.1918 14.4045 11.151 14.5205 11.0794C14.6364 11.0077 14.7322 10.9076 14.7986 10.7886C14.865 10.6696 14.8999 10.5355 14.9 10.3992V5.59922C14.8999 5.46291 14.865 5.32887 14.7986 5.20984C14.7322 5.0908 14.6364 4.99071 14.5205 4.91906C14.4045 4.84742 14.2722 4.80659 14.136 4.80046C13.9998 4.79432 13.8643 4.82309 13.7424 4.88402L12.1424 5.68402Z" />
  </symbol>

  <symbol id="audio" viewBox="0 0 16 16">
    <path d="M14.9 2.39913C14.8999 2.28081 14.8736 2.16399 14.823 2.05707C14.7723 1.95015 14.6986 1.8558 14.607 1.78081C14.5155 1.70583 14.4085 1.65207 14.2937 1.62342C14.1789 1.59477 14.0592 1.59194 13.9432 1.61513L5.9432 3.21513C5.76191 3.25136 5.59877 3.34927 5.48151 3.4922C5.36425 3.63512 5.30011 3.81425 5.3 3.99913V11.2903C5.03774 11.2292 4.76929 11.1986 4.5 11.1991C3.1744 11.1991 2.1 11.9151 2.1 12.7991C2.1 13.6831 3.1744 14.3991 4.5 14.3991C5.8256 14.3991 6.9 13.6831 6.9 12.7991V6.25513L13.3 4.97513V9.69033C13.0377 9.62922 12.7693 9.59861 12.5 9.59913C11.1744 9.59913 10.1 10.3151 10.1 11.1991C10.1 12.0831 11.1744 12.7991 12.5 12.7991C13.8256 12.7991 14.9 12.0831 14.9 11.1991V2.39913Z" />
  </symbol>

  <symbol id="file" viewBox="0 0 16 16">
    <path fill-rule="evenodd" clip-rule="evenodd" d="M3.2 3.19961C3.2 2.77526 3.36857 2.3683 3.66863 2.06824C3.96868 1.76818 4.37565 1.59961 4.8 1.59961H8.4688C8.89311 1.5997 9.30001 1.76833 9.6 2.06841L12.3312 4.79961C12.6313 5.0996 12.7999 5.5065 12.8 5.93081V12.7996C12.8 13.224 12.6314 13.6309 12.3314 13.931C12.0313 14.231 11.6243 14.3996 11.2 14.3996H4.8C4.37565 14.3996 3.96868 14.231 3.66863 13.931C3.36857 13.6309 3.2 13.224 3.2 12.7996V3.19961ZM4.8 7.99961C4.8 7.78744 4.88428 7.58395 5.03431 7.43392C5.18434 7.28389 5.38782 7.19961 5.6 7.19961H10.4C10.6122 7.19961 10.8157 7.28389 10.9657 7.43392C11.1157 7.58395 11.2 7.78744 11.2 7.99961C11.2 8.21178 11.1157 8.41527 10.9657 8.56529C10.8157 8.71532 10.6122 8.79961 10.4 8.79961H5.6C5.38782 8.79961 5.18434 8.71532 5.03431 8.56529C4.88428 8.41527 4.8 8.21178 4.8 7.99961ZM5.6 10.3996C5.38782 10.3996 5.18434 10.4839 5.03431 10.6339C4.88428 10.784 4.8 10.9874 4.8 11.1996C4.8 11.4118 4.88428 11.6153 5.03431 11.7653C5.18434 11.9153 5.38782 11.9996 5.6 11.9996H10.4C10.6122 11.9996 10.8157 11.9153 10.9657 11.7653C11.1157 11.6153 11.2 11.4118 11.2 11.1996C11.2 10.9874 11.1157 10.784 10.9657 10.6339C10.8157 10.4839 10.6122 10.3996 10.4 10.3996H5.6Z" />
  </symbol>
</svg>
