<svg xmlns="http://www.w3.org/2000/svg">
  <symbol id="eye-close" viewBox="0 0 20 20">
    <path fill-rule="evenodd" clip-rule="evenodd" d="M3.70692 2.293C3.51832 2.11084 3.26571 2.01005 3.00352 2.01232C2.74132 2.0146 2.49051 2.11977 2.3051 2.30518C2.11969 2.49059 2.01452 2.7414 2.01224 3.0036C2.00997 3.26579 2.11076 3.5184 2.29292 3.707L16.2929 17.707C16.4815 17.8892 16.7341 17.99 16.9963 17.9877C17.2585 17.9854 17.5093 17.8802 17.6947 17.6948C17.8801 17.5094 17.9853 17.2586 17.9876 16.9964C17.9899 16.7342 17.8891 16.4816 17.7069 16.293L16.2339 14.82C17.7914 13.5781 18.9432 11.8999 19.5419 10C18.2679 5.943 14.4779 3 9.99992 3C8.43235 2.99787 6.88642 3.36585 5.48792 4.074L3.70792 2.293H3.70692ZM7.96792 6.553L9.48192 8.068C9.82101 7.97795 10.1778 7.97855 10.5166 8.06973C10.8554 8.16091 11.1643 8.33948 11.4124 8.58756C11.6604 8.83565 11.839 9.14454 11.9302 9.48333C12.0214 9.82212 12.022 10.1789 11.9319 10.518L13.4459 12.032C13.8969 11.268 14.0811 10.3758 13.9696 9.49568C13.858 8.61556 13.4571 7.79749 12.8297 7.17018C12.2024 6.54286 11.3844 6.14189 10.5042 6.03035C9.62412 5.9188 8.7319 6.10301 7.96792 6.554V6.553Z" fill="#90A4AE" />
    <path d="M12.454 16.697L9.75001 13.992C8.77769 13.9311 7.86103 13.5174 7.17206 12.8286C6.4831 12.1398 6.06918 11.2233 6.00801 10.251L2.33501 6.578C1.49022 7.58401 0.852357 8.74691 0.458008 10C1.73201 14.057 5.52301 17 10 17C10.847 17 11.669 16.895 12.454 16.697Z" fill="#90A4AE" />
  </symbol>

  <symbol id="image" viewBox="0 0 16 16">
    <path fill-rule="evenodd" clip-rule="evenodd" d="M3.20001 2.40039C2.77566 2.40039 2.36869 2.56896 2.06864 2.86902C1.76858 3.16908 1.60001 3.57604 1.60001 4.00039V12.0004C1.60001 12.4247 1.76858 12.8317 2.06864 13.1318C2.36869 13.4318 2.77566 13.6004 3.20001 13.6004H12.8C13.2244 13.6004 13.6313 13.4318 13.9314 13.1318C14.2314 12.8317 14.4 12.4247 14.4 12.0004V4.00039C14.4 3.57604 14.2314 3.16908 13.9314 2.86902C13.6313 2.56896 13.2244 2.40039 12.8 2.40039H3.20001ZM12.8 12.0004H3.20001L6.40001 5.60039L8.80001 10.4004L10.4 7.20039L12.8 12.0004Z" />
  </symbol>
</svg>
