<svg xmlns="http://www.w3.org/2000/svg">
  <symbol id="profile" viewBox="0 0 16 17">
    <path fill-rule="evenodd" clip-rule="evenodd" d="M8.00002 7.70039C8.63654 7.70039 9.24699 7.44753 9.69708 6.99745C10.1472 6.54736 10.4 5.93691 10.4 5.30039C10.4 4.66387 10.1472 4.05342 9.69708 3.60333C9.24699 3.15325 8.63654 2.90039 8.00002 2.90039C7.36351 2.90039 6.75306 3.15325 6.30297 3.60333C5.85288 4.05342 5.60002 4.66387 5.60002 5.30039C5.60002 5.93691 5.85288 6.54736 6.30297 6.99745C6.75306 7.44753 7.36351 7.70039 8.00002 7.70039ZM2.40002 14.9004C2.40002 14.165 2.54487 13.4368 2.8263 12.7574C3.10773 12.0779 3.52022 11.4606 4.04023 10.9406C4.56023 10.4206 5.17757 10.0081 5.857 9.72667C6.53642 9.44524 7.26462 9.30039 8.00002 9.30039C8.73543 9.30039 9.46363 9.44524 10.1431 9.72667C10.8225 10.0081 11.4398 10.4206 11.9598 10.9406C12.4798 11.4606 12.8923 12.0779 13.1738 12.7574C13.4552 13.4368 13.6 14.165 13.6 14.9004H2.40002Z" fill="#90A4AE"/>
  </symbol>

  <symbol id="subscriptions" viewBox="0 0 16 17">
    <path d="M10.4 5.30039C10.4 5.93691 10.1471 6.54736 9.69704 6.99745C9.24696 7.44753 8.63651 7.70039 7.99999 7.70039C7.36347 7.70039 6.75302 7.44753 6.30293 6.99745C5.85284 6.54736 5.59999 5.93691 5.59999 5.30039C5.59999 4.66387 5.85284 4.05342 6.30293 3.60333C6.75302 3.15325 7.36347 2.90039 7.99999 2.90039C8.63651 2.90039 9.24696 3.15325 9.69704 3.60333C10.1471 4.05342 10.4 4.66387 10.4 5.30039ZM14.4 6.90039C14.4 7.32474 14.2314 7.7317 13.9314 8.03176C13.6313 8.33182 13.2243 8.50039 12.8 8.50039C12.3756 8.50039 11.9687 8.33182 11.6686 8.03176C11.3686 7.7317 11.2 7.32474 11.2 6.90039C11.2 6.47604 11.3686 6.06908 11.6686 5.76902C11.9687 5.46896 12.3756 5.30039 12.8 5.30039C13.2243 5.30039 13.6313 5.46896 13.9314 5.76902C14.2314 6.06908 14.4 6.47604 14.4 6.90039ZM11.2 12.5004C11.2 11.6517 10.8628 10.8378 10.2627 10.2376C9.66261 9.63753 8.84868 9.30039 7.99999 9.30039C7.15129 9.30039 6.33736 9.63753 5.73725 10.2376C5.13713 10.8378 4.79999 11.6517 4.79999 12.5004V14.9004H11.2V12.5004ZM4.79999 6.90039C4.79999 7.32474 4.63142 7.7317 4.33136 8.03176C4.0313 8.33182 3.62433 8.50039 3.19999 8.50039C2.77564 8.50039 2.36868 8.33182 2.06862 8.03176C1.76856 7.7317 1.59999 7.32474 1.59999 6.90039C1.59999 6.47604 1.76856 6.06908 2.06862 5.76902C2.36868 5.46896 2.77564 5.30039 3.19999 5.30039C3.62433 5.30039 4.0313 5.46896 4.33136 5.76902C4.63142 6.06908 4.79999 6.47604 4.79999 6.90039ZM12.8 14.9004V12.5004C12.8011 11.687 12.5946 10.8868 12.2 10.1756C12.5547 10.0848 12.9254 10.0763 13.2839 10.1506C13.6424 10.2249 13.9791 10.3801 14.2685 10.6043C14.5579 10.8286 14.7923 11.116 14.9537 11.4446C15.1151 11.7732 15.1994 12.1343 15.2 12.5004V14.9004H12.8ZM3.79999 10.1756C3.40539 10.8868 3.19887 11.687 3.19999 12.5004V14.9004H0.799988V12.5004C0.799834 12.134 0.883558 11.7725 1.04475 11.4435C1.20593 11.1145 1.4403 10.8267 1.72989 10.6023C2.01949 10.3779 2.35661 10.2228 2.71544 10.1488C3.07426 10.0748 3.44525 10.084 3.79999 10.1756Z" fill="#90A4AE"/>
  </symbol>

  <symbol id="settings" viewBox="0 0 16 17">
    <path fill-rule="evenodd" clip-rule="evenodd" d="M9.19202 3.03561C8.88802 1.78761 7.11202 1.78761 6.80802 3.03561C6.76263 3.22314 6.67361 3.39731 6.5482 3.54394C6.42278 3.69057 6.26452 3.80551 6.0863 3.87943C5.90807 3.95334 5.7149 3.98412 5.52253 3.96928C5.33015 3.95444 5.144 3.89439 4.97922 3.79401C3.88162 3.12521 2.62562 4.38121 3.29442 5.47881C3.72642 6.18761 3.34322 7.11241 2.53682 7.30841C1.28802 7.61161 1.28802 9.38841 2.53682 9.69081C2.7244 9.73625 2.8986 9.82536 3.04523 9.95087C3.19186 10.0764 3.30677 10.2347 3.38061 10.4131C3.45445 10.5914 3.48513 10.7846 3.47016 10.9771C3.45518 11.1695 3.39496 11.3557 3.29442 11.5204C2.62562 12.618 3.88162 13.874 4.97922 13.2052C5.14397 13.1047 5.33014 13.0445 5.52257 13.0295C5.71499 13.0145 5.90824 13.0452 6.08656 13.119C6.26489 13.1929 6.42325 13.3078 6.54876 13.4544C6.67427 13.601 6.76338 13.7752 6.80882 13.9628C7.11202 15.2116 8.88882 15.2116 9.19122 13.9628C9.23682 13.7753 9.32601 13.6012 9.45155 13.4547C9.57708 13.3082 9.73542 13.1934 9.91369 13.1195C10.092 13.0457 10.2851 13.015 10.4775 13.0299C10.6699 13.0448 10.856 13.1048 11.0208 13.2052C12.1184 13.874 13.3744 12.618 12.7056 11.5204C12.6053 11.3556 12.5452 11.1695 12.5303 10.9771C12.5154 10.7847 12.5461 10.5915 12.6199 10.4133C12.6938 10.235 12.8086 10.0767 12.9551 9.95113C13.1017 9.8256 13.2757 9.73641 13.4632 9.69081C14.712 9.38761 14.712 7.61081 13.4632 7.30841C13.2756 7.26297 13.1014 7.17386 12.9548 7.04835C12.8082 6.92284 12.6933 6.76448 12.6194 6.58615C12.5456 6.40783 12.5149 6.21458 12.5299 6.02216C12.5449 5.82973 12.6051 5.64356 12.7056 5.47881C13.3744 4.38121 12.1184 3.12521 11.0208 3.79401C10.8561 3.89455 10.6699 3.95477 10.4775 3.96974C10.285 3.98472 10.0918 3.95404 9.91348 3.8802C9.73515 3.80636 9.57679 3.69145 9.45128 3.54482C9.32577 3.39819 9.23666 3.22399 9.19122 3.03641L9.19202 3.03561ZM8.00002 10.8996C8.63654 10.8996 9.24699 10.6468 9.69708 10.1967C10.1472 9.74658 10.4 9.13613 10.4 8.49961C10.4 7.86309 10.1472 7.25264 9.69708 6.80255C9.24699 6.35247 8.63654 6.09961 8.00002 6.09961C7.3635 6.09961 6.75305 6.35247 6.30296 6.80255C5.85288 7.25264 5.60002 7.86309 5.60002 8.49961C5.60002 9.13613 5.85288 9.74658 6.30296 10.1967C6.75305 10.6468 7.3635 10.8996 8.00002 10.8996Z" fill="#90A4AE"/>
  </symbol>

  <symbol id="account" viewBox="0 0 16 17">
    <path fill-rule="evenodd" clip-rule="evenodd" d="M14.4 8.49961C14.4 10.197 13.7257 11.8249 12.5255 13.0251C11.3253 14.2253 9.69739 14.8996 8.00001 14.8996C6.30262 14.8996 4.67476 14.2253 3.47452 13.0251C2.27429 11.8249 1.60001 10.197 1.60001 8.49961C1.60001 6.80222 2.27429 5.17436 3.47452 3.97413C4.67476 2.77389 6.30262 2.09961 8.00001 2.09961C9.69739 2.09961 11.3253 2.77389 12.5255 3.97413C13.7257 5.17436 14.4 6.80222 14.4 8.49961ZM9.60001 6.09961C9.60001 6.52396 9.43143 6.93092 9.13138 7.23098C8.83132 7.53104 8.42435 7.69961 8.00001 7.69961C7.57566 7.69961 7.16869 7.53104 6.86864 7.23098C6.56858 6.93092 6.40001 6.52396 6.40001 6.09961C6.40001 5.67526 6.56858 5.2683 6.86864 4.96824C7.16869 4.66818 7.57566 4.49961 8.00001 4.49961C8.42435 4.49961 8.83132 4.66818 9.13138 4.96824C9.43143 5.2683 9.60001 5.67526 9.60001 6.09961ZM8.00001 9.29961C7.23409 9.29945 6.48423 9.5192 5.83954 9.93273C5.19485 10.3463 4.68244 10.9362 4.36321 11.6324C4.81335 12.1561 5.37142 12.5762 5.99916 12.864C6.6269 13.1518 7.30945 13.3004 8.00001 13.2996C8.69056 13.3004 9.37311 13.1518 10.0008 12.864C10.6286 12.5762 11.1867 12.1561 11.6368 11.6324C11.3176 10.9362 10.8052 10.3463 10.1605 9.93273C9.51578 9.5192 8.76592 9.29945 8.00001 9.29961Z" fill="#90A4AE"/>
  </symbol>

  <symbol id="password" viewBox="0 0 16 17">
    <path fill-rule="evenodd" clip-rule="evenodd" d="M3.99999 7.69961V6.09961C3.99999 5.03874 4.42142 4.02133 5.17157 3.27118C5.92171 2.52104 6.93913 2.09961 7.99999 2.09961C9.06086 2.09961 10.0783 2.52104 10.8284 3.27118C11.5786 4.02133 12 5.03874 12 6.09961V7.69961C12.4243 7.69961 12.8313 7.86818 13.1314 8.16824C13.4314 8.4683 13.6 8.87526 13.6 9.29961V13.2996C13.6 13.724 13.4314 14.1309 13.1314 14.431C12.8313 14.731 12.4243 14.8996 12 14.8996H3.99999C3.57565 14.8996 3.16868 14.731 2.86862 14.431C2.56856 14.1309 2.39999 13.724 2.39999 13.2996V9.29961C2.39999 8.87526 2.56856 8.4683 2.86862 8.16824C3.16868 7.86818 3.57565 7.69961 3.99999 7.69961ZM10.4 6.09961V7.69961H5.59999V6.09961C5.59999 5.46309 5.85285 4.85264 6.30294 4.40255C6.75303 3.95247 7.36347 3.69961 7.99999 3.69961C8.63651 3.69961 9.24696 3.95247 9.69705 4.40255C10.1471 4.85264 10.4 5.46309 10.4 6.09961Z" fill="#90A4AE"/>
  </symbol>

  <symbol id="payment" viewBox="0 0 16 17">
    <path d="M3.20001 3.7002C2.77566 3.7002 2.36869 3.86877 2.06864 4.16882C1.76858 4.46888 1.60001 4.87585 1.60001 5.3002V6.1002H14.4V5.3002C14.4 4.87585 14.2314 4.46888 13.9314 4.16882C13.6313 3.86877 13.2244 3.7002 12.8 3.7002H3.20001Z" fill="#90A4AE"/>
    <path fill-rule="evenodd" clip-rule="evenodd" d="M14.4 7.7002H1.60001V11.7002C1.60001 12.1245 1.76858 12.5315 2.06864 12.8316C2.36869 13.1316 2.77566 13.3002 3.20001 13.3002H12.8C13.2244 13.3002 13.6313 13.1316 13.9314 12.8316C14.2314 12.5315 14.4 12.1245 14.4 11.7002V7.7002ZM3.20001 10.9002C3.20001 10.688 3.28429 10.4845 3.43432 10.3345C3.58435 10.1845 3.78783 10.1002 4.00001 10.1002H4.80001C5.01218 10.1002 5.21566 10.1845 5.36569 10.3345C5.51572 10.4845 5.60001 10.688 5.60001 10.9002C5.60001 11.1124 5.51572 11.3159 5.36569 11.4659C5.21566 11.6159 5.01218 11.7002 4.80001 11.7002H4.00001C3.78783 11.7002 3.58435 11.6159 3.43432 11.4659C3.28429 11.3159 3.20001 11.1124 3.20001 10.9002ZM7.20001 10.1002C6.98783 10.1002 6.78435 10.1845 6.63432 10.3345C6.48429 10.4845 6.40001 10.688 6.40001 10.9002C6.40001 11.1124 6.48429 11.3159 6.63432 11.4659C6.78435 11.6159 6.98783 11.7002 7.20001 11.7002H8.00001C8.21218 11.7002 8.41566 11.6159 8.56569 11.4659C8.71572 11.3159 8.80001 11.1124 8.80001 10.9002C8.80001 10.688 8.71572 10.4845 8.56569 10.3345C8.41566 10.1845 8.21218 10.1002 8.00001 10.1002H7.20001Z" fill="#90A4AE"/>
  </symbol>
</svg>
